<svg width="706" height="670" viewBox="0 0 706 670" fill="none" xmlns="http://www.w3.org/2000/svg">
<g filter="url(#filter0_d_2702_13585)">
<rect x="66" y="42" width="557" height="537" rx="30.8658" fill="white"/>
</g>
<g filter="url(#filter1_d_2702_13585)">
<rect x="238.547" y="81.7749" width="361.991" height="459.125" rx="30" fill="#FF0000" fill-opacity="0.01"/>
</g>
<rect x="225.59" y="65.75" width="386.659" height="490.38" rx="29.25" fill="white" stroke="#EFF0F7" stroke-width="1.5"/>
<rect x="349.111" y="306.161" width="139.617" height="9.3915" rx="4.69575" fill="#D9DBE9"/>
<rect x="374.66" y="491.428" width="88.518" height="25.5586" rx="12.7793" fill="#ABB3DF"/>
<g filter="url(#filter2_d_2702_13585)">
<rect x="255.062" y="339.228" width="97.7483" height="123.342" rx="12.045" fill="#FF0000" fill-opacity="0.01"/>
</g>
<rect x="252.294" y="333.842" width="103.287" height="139.455" rx="12.4979" fill="white" stroke="#EFF0F7" stroke-width="0.6"/>
<rect x="277.137" y="401.032" width="53.6051" height="6.1863" rx="3.09315" fill="#D9DBE9"/>
<rect x="270.17" y="419.545" width="67.5383" height="6.1863" rx="3.09315" fill="#EFF0F7"/>
<rect x="270.17" y="445.395" width="67.5383" height="6.1863" rx="3.09315" fill="#EFF0F7"/>
<rect x="282.008" y="432.469" width="43.8619" height="6.1863" rx="3.09315" fill="#EFF0F7"/>
<rect x="286.271" y="353.354" width="35.3359" height="35.3503" rx="8.78569" fill="#ABB3DF"/>
<g filter="url(#filter3_d_2702_13585)">
<rect x="369.855" y="337.997" width="98.1303" height="125.803" rx="12.045" fill="#FF0000" fill-opacity="0.01"/>
</g>
<rect x="367.275" y="333.842" width="103.287" height="139.455" rx="12.4979" fill="white" stroke="#EFF0F7" stroke-width="0.6"/>
<rect x="392.115" y="400.898" width="53.6051" height="6.1863" rx="3.09315" fill="#D9DBE9"/>
<rect x="385.148" y="419.411" width="67.5383" height="6.1863" rx="3.09315" fill="#EFF0F7"/>
<rect x="385.148" y="445.261" width="67.5383" height="6.1863" rx="3.09315" fill="#EFF0F7"/>
<rect x="396.988" y="432.335" width="43.8619" height="6.1863" rx="3.09315" fill="#EFF0F7"/>
<rect x="401.111" y="353.355" width="35.3359" height="35.3503" rx="8.78569" fill="#ABB3DF"/>
<path d="M426.823 364.082C426.657 363.969 426.463 363.902 426.262 363.89C426.061 363.878 425.86 363.92 425.681 364.011C424.753 364.389 423.766 364.601 422.764 364.637C421.622 364.553 420.496 364.32 419.414 363.945C417.041 363.252 416.219 363.088 414.4 363.323C414.144 363.356 413.909 363.481 413.739 363.675C413.57 363.869 413.476 364.118 413.477 364.376V374.997C413.477 375.147 413.508 375.295 413.569 375.431C413.631 375.568 413.72 375.69 413.831 375.789C413.943 375.889 414.074 375.964 414.217 376.009C414.359 376.054 414.51 376.068 414.658 376.051C416.252 375.868 416.995 376.023 419.212 376.673C420.359 377.07 421.553 377.313 422.764 377.395C424.002 377.349 425.219 377.072 426.355 376.58C426.83 376.399 427.26 376.156 427.26 375.5V364.949C427.261 364.78 427.223 364.614 427.147 364.463C427.071 364.312 426.96 364.181 426.823 364.082V364.082Z" fill="white"/>
<path d="M411.357 362.545C411.076 362.545 410.806 362.657 410.607 362.856C410.409 363.055 410.297 363.324 410.297 363.606V378.455C410.297 378.737 410.409 379.006 410.607 379.205C410.806 379.404 411.076 379.516 411.357 379.516C411.638 379.516 411.908 379.404 412.107 379.205C412.306 379.006 412.417 378.737 412.417 378.455V363.606C412.417 363.324 412.306 363.055 412.107 362.856C411.908 362.657 411.638 362.545 411.357 362.545V362.545Z" fill="white"/>
<g filter="url(#filter4_d_2702_13585)">
<rect x="483.801" y="336.279" width="100.207" height="129.24" rx="12.045" fill="#FF0000" fill-opacity="0.01"/>
</g>
<rect x="482.259" y="333.842" width="103.287" height="139.455" rx="12.4979" fill="white" stroke="#EFF0F7" stroke-width="0.6"/>
<rect x="507.1" y="401.033" width="53.6051" height="6.1863" rx="3.09315" fill="#D9DBE9"/>
<rect x="500.135" y="419.545" width="67.5383" height="6.1863" rx="3.09315" fill="#EFF0F7"/>
<rect x="500.135" y="445.396" width="67.5383" height="6.1863" rx="3.09315" fill="#EFF0F7"/>
<rect x="511.971" y="432.47" width="43.8619" height="6.1863" rx="3.09315" fill="#EFF0F7"/>
<rect x="515.951" y="353.355" width="35.3359" height="35.3503" rx="8.78569" fill="#ABB3DF"/>
<path fill-rule="evenodd" clip-rule="evenodd" d="M529.9 361.469H537.91C540.862 361.469 542.506 363.171 542.506 366.087V375.964C542.506 378.928 540.862 380.591 537.91 380.591H529.9C526.994 380.591 525.303 378.928 525.303 375.964V366.087C525.303 363.171 526.994 361.469 529.9 361.469ZM530.158 365.924V365.915H533.014C533.426 365.915 533.761 366.25 533.761 366.66C533.761 367.081 533.426 367.416 533.014 367.416H530.158C529.746 367.416 529.412 367.081 529.412 366.67C529.412 366.259 529.746 365.924 530.158 365.924ZM530.158 371.738H537.651C538.062 371.738 538.396 371.403 538.396 370.992C538.396 370.581 538.062 370.245 537.651 370.245H530.158C529.746 370.245 529.412 370.581 529.412 370.992C529.412 371.403 529.746 371.738 530.158 371.738ZM530.158 376.107H537.651C538.032 376.069 538.32 375.743 538.32 375.361C538.32 374.969 538.032 374.644 537.651 374.606H530.158C529.871 374.577 529.594 374.711 529.441 374.96C529.288 375.199 529.288 375.514 529.441 375.763C529.594 376.002 529.871 376.145 530.158 376.107Z" fill="white"/>
<rect x="224.84" y="118.658" width="388.159" height="150.102" fill="#CAD0EF"/>
<rect x="537.723" y="83.0488" width="48.1679" height="17.5601" rx="8.78007" fill="#ABB3DF"/>
<rect x="495.334" y="87.7207" width="34.6895" height="8.21756" rx="4.10878" fill="#EFF0F7"/>
<rect x="402.65" y="87.7207" width="34.6895" height="8.21756" rx="4.10878" fill="#EFF0F7"/>
<rect x="444.262" y="87.7207" width="44.148" height="8.21756" rx="4.10878" fill="#EFF0F7"/>
<g filter="url(#filter5_d_2702_13585)">
<rect x="105.883" y="105.253" width="319.721" height="416.999" rx="30" fill="#FF0000" fill-opacity="0.01"/>
</g>
<rect x="94.5254" y="89.2285" width="341.334" height="445.416" rx="29.25" fill="white" stroke="#EFF0F7" stroke-width="1.5"/>
<rect x="231.326" y="474.226" width="68.8376" height="21.1309" rx="10.5654" fill="#FF5F85"/>
<g filter="url(#filter6_d_2702_13585)">
<rect x="270.199" y="166.818" width="133.493" height="128.756" rx="17.4397" fill="#FF0000" fill-opacity="0.01"/>
</g>
<path opacity="0.2" d="M153.529 349.812C153.529 339.213 161.799 330.454 172.38 329.845L356.808 319.233C368.286 318.573 377.957 327.703 377.957 339.2V478.102C377.957 488.702 369.687 497.46 359.105 498.069L174.678 508.681C163.2 509.342 153.529 500.211 153.529 488.714V349.812Z" fill="#FFC9D6"/>
<rect x="124.838" y="260.397" width="68.8376" height="21.1309" rx="10.5654" fill="#D05F5F"/>
<rect x="124.838" y="180.863" width="90.6844" height="8.14415" rx="4.07208" fill="#D9DBE9"/>
<rect x="124.838" y="203.095" width="114.255" height="8.14415" rx="4.07208" fill="#EFF0F7"/>
<rect x="124.838" y="233.47" width="114.255" height="8.14415" rx="4.07208" fill="#EFF0F7"/>
<rect x="124.838" y="218.283" width="74.2017" height="8.14415" rx="4.07208" fill="#EFF0F7"/>
<g filter="url(#filter7_d_2702_13585)">
<rect x="222.57" y="345.659" width="86.3461" height="101.678" rx="12.045" fill="#FF0000" fill-opacity="0.01"/>
</g>
<rect x="220.159" y="341.271" width="91.1691" height="114.856" rx="12.4979" fill="white" stroke="#EFF0F7" stroke-width="0.6"/>
<rect x="242.068" y="400.588" width="47.3521" height="5.46468" rx="2.73234" fill="#D9DBE9"/>
<rect x="235.914" y="416.942" width="59.6601" height="5.46468" rx="2.73234" fill="#EFF0F7"/>
<rect x="246.371" y="428.359" width="38.7455" height="5.46468" rx="2.73234" fill="#EFF0F7"/>
<rect x="250.137" y="358.472" width="31.2141" height="31.2268" rx="8.78569" fill="#D05F5F"/>
<path d="M273.786 367.137C273.62 367.024 273.426 366.958 273.225 366.945C273.024 366.933 272.823 366.975 272.644 367.067C271.716 367.444 270.729 367.656 269.727 367.692C268.585 367.608 267.459 367.376 266.377 367C264.004 366.307 263.182 366.143 261.363 366.378C261.107 366.411 260.872 366.537 260.702 366.731C260.532 366.924 260.439 367.174 260.439 367.432V378.053C260.439 378.202 260.471 378.35 260.532 378.486C260.593 378.623 260.683 378.745 260.794 378.844C260.906 378.944 261.037 379.019 261.18 379.064C261.322 379.109 261.473 379.123 261.621 379.106C263.215 378.923 263.957 379.079 266.175 379.728C267.322 380.125 268.516 380.368 269.727 380.45C270.964 380.404 272.182 380.128 273.318 379.635C273.793 379.454 274.223 379.211 274.223 378.555V368.004C274.224 367.835 274.185 367.669 274.109 367.518C274.033 367.367 273.923 367.237 273.786 367.137V367.137Z" fill="white"/>
<path d="M258.32 365.6C258.039 365.6 257.769 365.712 257.57 365.911C257.371 366.11 257.26 366.379 257.26 366.661V381.511C257.26 381.792 257.371 382.062 257.57 382.261C257.769 382.459 258.039 382.571 258.32 382.571C258.601 382.571 258.871 382.459 259.07 382.261C259.269 382.062 259.38 381.792 259.38 381.511V366.661C259.38 366.379 259.269 366.11 259.07 365.911C258.871 365.712 258.601 365.6 258.32 365.6V365.6Z" fill="white"/>
<g filter="url(#filter8_d_2702_13585)">
<rect x="121.307" y="344.643" width="86.6836" height="103.707" rx="12.045" fill="#FF0000" fill-opacity="0.01"/>
</g>
<rect x="119.062" y="341.271" width="91.1691" height="114.856" rx="12.4979" fill="white" stroke="#EFF0F7" stroke-width="0.6"/>
<rect x="140.969" y="400.47" width="47.3521" height="5.46468" rx="2.73234" fill="#D9DBE9"/>
<rect x="134.816" y="416.823" width="59.6601" height="5.46468" rx="2.73234" fill="#EFF0F7"/>
<rect x="145.273" y="428.24" width="38.7455" height="5.46468" rx="2.73234" fill="#EFF0F7"/>
<rect x="148.914" y="358.473" width="31.2141" height="31.2268" rx="8.78569" fill="#D05F5F"/>
<path d="M172.63 381.661C172.555 382.29 172.03 382.759 171.416 382.759C170.786 382.759 170.261 382.29 170.203 381.661V376.864C170.144 376.394 170.362 375.957 170.758 375.708C171.168 375.459 171.665 375.459 172.058 375.708C172.455 375.957 172.672 376.394 172.63 376.864V381.661Z" fill="white"/>
<path d="M165.903 381.661C165.845 382.29 165.32 382.758 164.69 382.758C164.075 382.758 163.551 382.29 163.476 381.661V366.756C163.434 366.302 163.651 365.847 164.048 365.6C164.441 365.351 164.938 365.351 165.349 365.6C165.744 365.847 165.962 366.302 165.903 366.756V381.661Z" fill="white"/>
<path d="M159.09 381.661C159.031 382.29 158.506 382.758 157.876 382.758C157.247 382.758 156.721 382.29 156.664 381.661V371.554C156.62 371.099 156.838 370.647 157.234 370.398C157.627 370.149 158.126 370.149 158.521 370.398C158.914 370.647 159.135 371.099 159.09 371.554V381.661Z" fill="white"/>
<g filter="url(#filter9_d_2702_13585)">
<rect x="322.586" y="343.227" width="88.5178" height="106.54" rx="12.045" fill="#FF0000" fill-opacity="0.01"/>
</g>
<rect x="321.259" y="341.271" width="91.1691" height="114.856" rx="12.4979" fill="white" stroke="#EFF0F7" stroke-width="0.6"/>
<rect x="343.166" y="400.588" width="47.3521" height="5.46468" rx="2.73234" fill="#D9DBE9"/>
<rect x="337.014" y="416.942" width="59.6601" height="5.46468" rx="2.73234" fill="#EFF0F7"/>
<rect x="347.471" y="428.359" width="38.7455" height="5.46468" rx="2.73234" fill="#EFF0F7"/>
<rect x="350.984" y="358.473" width="31.2141" height="31.2268" rx="8.78569" fill="#D05F5F"/>
<path fill-rule="evenodd" clip-rule="evenodd" d="M362.841 365.044H370.851C373.804 365.044 375.447 366.746 375.447 369.663V379.539C375.447 382.503 373.804 384.167 370.851 384.167H362.841C359.936 384.167 358.244 382.503 358.244 379.539V369.663C358.244 366.746 359.936 365.044 362.841 365.044ZM363.099 369.5V369.491H365.956C366.368 369.491 366.702 369.825 366.702 370.235C366.702 370.657 366.368 370.992 365.956 370.992H363.099C362.687 370.992 362.353 370.657 362.353 370.246C362.353 369.835 362.687 369.5 363.099 369.5ZM363.099 375.313H370.592C371.003 375.313 371.338 374.979 371.338 374.568C371.338 374.156 371.003 373.821 370.592 373.821H363.099C362.687 373.821 362.354 374.156 362.354 374.568C362.354 374.979 362.687 375.313 363.099 375.313ZM363.099 379.683H370.592C370.974 379.645 371.261 379.319 371.261 378.937C371.261 378.545 370.974 378.22 370.592 378.182H363.099C362.813 378.153 362.536 378.287 362.383 378.535C362.23 378.774 362.23 379.09 362.383 379.339C362.536 379.578 362.813 379.721 363.099 379.683Z" fill="white"/>
<rect x="262.6" y="159.649" width="148.692" height="143.093" rx="11.5" fill="white" stroke="#EFF0F7"/>
<path d="M323.033 276.014C316.491 273.982 310.473 270.54 305.403 265.932C300.332 261.323 296.332 255.659 293.684 249.338C291.036 243.017 289.803 236.192 290.074 229.343C290.344 222.495 292.111 215.788 295.249 209.696" stroke="#F3F5FF" stroke-width="16" stroke-linecap="round"/>
<path d="M293.082 214.561C296.973 204.294 304.338 195.716 313.897 190.321C323.455 184.926 334.601 183.055 345.396 185.033C356.19 187.011 365.95 192.713 372.977 201.147C380.005 209.582 383.853 220.215 383.853 231.196" stroke="#FFE5E9" stroke-width="16" stroke-linecap="round"/>
<path d="M383.853 231.196C383.853 239.636 381.578 247.921 377.267 255.176C372.956 262.432 366.77 268.389 359.359 272.422C351.949 276.455 343.588 278.413 335.159 278.092C326.73 277.771 318.543 275.181 311.46 270.596" stroke="#D05F5F" stroke-width="16" stroke-linecap="round"/>
<defs>
<filter id="filter0_d_2702_13585" x="22" y="22" width="645" height="625" filterUnits="userSpaceOnUse" color-interpolation-filters="sRGB">
<feFlood flood-opacity="0" result="BackgroundImageFix"/>
<feColorMatrix in="SourceAlpha" type="matrix" values="0 0 0 0 0 0 0 0 0 0 0 0 0 0 0 0 0 0 127 0" result="hardAlpha"/>
<feOffset dy="24"/>
<feGaussianBlur stdDeviation="22"/>
<feColorMatrix type="matrix" values="0 0 0 0 0.0784314 0 0 0 0 0.0784314 0 0 0 0 0.168627 0 0 0 0.04 0"/>
<feBlend mode="normal" in2="BackgroundImageFix" result="effect1_dropShadow_2702_13585"/>
<feBlend mode="normal" in="SourceGraphic" in2="effect1_dropShadow_2702_13585" result="shape"/>
</filter>
<filter id="filter1_d_2702_13585" x="133.547" y="0.774902" width="571.99" height="669.125" filterUnits="userSpaceOnUse" color-interpolation-filters="sRGB">
<feFlood flood-opacity="0" result="BackgroundImageFix"/>
<feColorMatrix in="SourceAlpha" type="matrix" values="0 0 0 0 0 0 0 0 0 0 0 0 0 0 0 0 0 0 127 0" result="hardAlpha"/>
<feOffset dy="24"/>
<feGaussianBlur stdDeviation="52.5"/>
<feColorMatrix type="matrix" values="0 0 0 0 0.12549 0 0 0 0 0.141176 0 0 0 0 0.541176 0 0 0 0.06 0"/>
<feBlend mode="normal" in2="BackgroundImageFix" result="effect1_dropShadow_2702_13585"/>
<feBlend mode="normal" in="SourceGraphic" in2="effect1_dropShadow_2702_13585" result="shape"/>
</filter>
<filter id="filter2_d_2702_13585" x="234.736" y="327.936" width="138.4" height="163.994" filterUnits="userSpaceOnUse" color-interpolation-filters="sRGB">
<feFlood flood-opacity="0" result="BackgroundImageFix"/>
<feColorMatrix in="SourceAlpha" type="matrix" values="0 0 0 0 0 0 0 0 0 0 0 0 0 0 0 0 0 0 127 0" result="hardAlpha"/>
<feOffset dy="9.03378"/>
<feGaussianBlur stdDeviation="10.163"/>
<feColorMatrix type="matrix" values="0 0 0 0 0.0423448 0 0 0 0 0.0391396 0 0 0 0 0.199398 0 0 0 0.04 0"/>
<feBlend mode="normal" in2="BackgroundImageFix" result="effect1_dropShadow_2702_13585"/>
<feBlend mode="normal" in="SourceGraphic" in2="effect1_dropShadow_2702_13585" result="shape"/>
</filter>
<filter id="filter3_d_2702_13585" x="349.529" y="326.704" width="138.783" height="166.455" filterUnits="userSpaceOnUse" color-interpolation-filters="sRGB">
<feFlood flood-opacity="0" result="BackgroundImageFix"/>
<feColorMatrix in="SourceAlpha" type="matrix" values="0 0 0 0 0 0 0 0 0 0 0 0 0 0 0 0 0 0 127 0" result="hardAlpha"/>
<feOffset dy="9.03378"/>
<feGaussianBlur stdDeviation="10.163"/>
<feColorMatrix type="matrix" values="0 0 0 0 0.0423448 0 0 0 0 0.0391396 0 0 0 0 0.199398 0 0 0 0.04 0"/>
<feBlend mode="normal" in2="BackgroundImageFix" result="effect1_dropShadow_2702_13585"/>
<feBlend mode="normal" in="SourceGraphic" in2="effect1_dropShadow_2702_13585" result="shape"/>
</filter>
<filter id="filter4_d_2702_13585" x="463.475" y="324.987" width="140.859" height="169.892" filterUnits="userSpaceOnUse" color-interpolation-filters="sRGB">
<feFlood flood-opacity="0" result="BackgroundImageFix"/>
<feColorMatrix in="SourceAlpha" type="matrix" values="0 0 0 0 0 0 0 0 0 0 0 0 0 0 0 0 0 0 127 0" result="hardAlpha"/>
<feOffset dy="9.03378"/>
<feGaussianBlur stdDeviation="10.163"/>
<feColorMatrix type="matrix" values="0 0 0 0 0.0423448 0 0 0 0 0.0391396 0 0 0 0 0.199398 0 0 0 0.04 0"/>
<feBlend mode="normal" in2="BackgroundImageFix" result="effect1_dropShadow_2702_13585"/>
<feBlend mode="normal" in="SourceGraphic" in2="effect1_dropShadow_2702_13585" result="shape"/>
</filter>
<filter id="filter5_d_2702_13585" x="0.52269" y="41.3133" width="530.441" height="627.72" filterUnits="userSpaceOnUse" color-interpolation-filters="sRGB">
<feFlood flood-opacity="0" result="BackgroundImageFix"/>
<feColorMatrix in="SourceAlpha" type="matrix" values="0 0 0 0 0 0 0 0 0 0 0 0 0 0 0 0 0 0 127 0" result="hardAlpha"/>
<feOffset dy="41.42"/>
<feGaussianBlur stdDeviation="52.6801"/>
<feColorMatrix type="matrix" values="0 0 0 0 0.124574 0 0 0 0 0.141235 0 0 0 0 0.541097 0 0 0 0.09 0"/>
<feBlend mode="normal" in2="BackgroundImageFix" result="effect1_dropShadow_2702_13585"/>
<feBlend mode="normal" in="SourceGraphic" in2="effect1_dropShadow_2702_13585" result="shape"/>
</filter>
<filter id="filter6_d_2702_13585" x="240.77" y="150.468" width="192.351" height="187.615" filterUnits="userSpaceOnUse" color-interpolation-filters="sRGB">
<feFlood flood-opacity="0" result="BackgroundImageFix"/>
<feColorMatrix in="SourceAlpha" type="matrix" values="0 0 0 0 0 0 0 0 0 0 0 0 0 0 0 0 0 0 127 0" result="hardAlpha"/>
<feOffset dy="13.0798"/>
<feGaussianBlur stdDeviation="14.7148"/>
<feColorMatrix type="matrix" values="0 0 0 0 0.0423448 0 0 0 0 0.0391396 0 0 0 0 0.199398 0 0 0 0.05 0"/>
<feBlend mode="normal" in2="BackgroundImageFix" result="effect1_dropShadow_2702_13585"/>
<feBlend mode="normal" in="SourceGraphic" in2="effect1_dropShadow_2702_13585" result="shape"/>
</filter>
<filter id="filter7_d_2702_13585" x="202.244" y="334.366" width="126.998" height="142.33" filterUnits="userSpaceOnUse" color-interpolation-filters="sRGB">
<feFlood flood-opacity="0" result="BackgroundImageFix"/>
<feColorMatrix in="SourceAlpha" type="matrix" values="0 0 0 0 0 0 0 0 0 0 0 0 0 0 0 0 0 0 127 0" result="hardAlpha"/>
<feOffset dy="9.03378"/>
<feGaussianBlur stdDeviation="10.163"/>
<feColorMatrix type="matrix" values="0 0 0 0 0.0423448 0 0 0 0 0.0391396 0 0 0 0 0.199398 0 0 0 0.04 0"/>
<feBlend mode="normal" in2="BackgroundImageFix" result="effect1_dropShadow_2702_13585"/>
<feBlend mode="normal" in="SourceGraphic" in2="effect1_dropShadow_2702_13585" result="shape"/>
</filter>
<filter id="filter8_d_2702_13585" x="100.981" y="333.35" width="127.336" height="144.359" filterUnits="userSpaceOnUse" color-interpolation-filters="sRGB">
<feFlood flood-opacity="0" result="BackgroundImageFix"/>
<feColorMatrix in="SourceAlpha" type="matrix" values="0 0 0 0 0 0 0 0 0 0 0 0 0 0 0 0 0 0 127 0" result="hardAlpha"/>
<feOffset dy="9.03378"/>
<feGaussianBlur stdDeviation="10.163"/>
<feColorMatrix type="matrix" values="0 0 0 0 0.0423448 0 0 0 0 0.0391396 0 0 0 0 0.199398 0 0 0 0.04 0"/>
<feBlend mode="normal" in2="BackgroundImageFix" result="effect1_dropShadow_2702_13585"/>
<feBlend mode="normal" in="SourceGraphic" in2="effect1_dropShadow_2702_13585" result="shape"/>
</filter>
<filter id="filter9_d_2702_13585" x="302.26" y="331.935" width="129.17" height="147.192" filterUnits="userSpaceOnUse" color-interpolation-filters="sRGB">
<feFlood flood-opacity="0" result="BackgroundImageFix"/>
<feColorMatrix in="SourceAlpha" type="matrix" values="0 0 0 0 0 0 0 0 0 0 0 0 0 0 0 0 0 0 127 0" result="hardAlpha"/>
<feOffset dy="9.03378"/>
<feGaussianBlur stdDeviation="10.163"/>
<feColorMatrix type="matrix" values="0 0 0 0 0.0423448 0 0 0 0 0.0391396 0 0 0 0 0.199398 0 0 0 0.04 0"/>
<feBlend mode="normal" in2="BackgroundImageFix" result="effect1_dropShadow_2702_13585"/>
<feBlend mode="normal" in="SourceGraphic" in2="effect1_dropShadow_2702_13585" result="shape"/>
</filter>
</defs>
</svg>
