<svg width="50" height="50" viewBox="0 0 50 50" fill="none" xmlns="http://www.w3.org/2000/svg">
<rect width="50" height="50" rx="6" fill="#F9ECEC"/>
<path d="M18.3333 38.3334C17.6 38.3334 16.972 38.072 16.4493 37.5494C15.9267 37.0267 15.6658 36.3991 15.6667 35.6667C15.6667 34.9334 15.928 34.3054 16.4507 33.7827C16.9733 33.26 17.6009 32.9991 18.3333 33C19.0667 33 19.6947 33.2614 20.2173 33.784C20.74 34.3067 21.0009 34.9342 21 35.6667C21 36.4 20.7387 37.028 20.216 37.5507C19.6933 38.0734 19.0658 38.3342 18.3333 38.3334ZM31.6667 38.3334C30.9333 38.3334 30.3053 38.072 29.7827 37.5494C29.26 37.0267 28.9991 36.3991 29 35.6667C29 34.9334 29.2613 34.3054 29.784 33.7827C30.3067 33.26 30.9342 32.9991 31.6667 33C32.4 33 33.028 33.2614 33.5507 33.784C34.0733 34.3067 34.3342 34.9342 34.3333 35.6667C34.3333 36.4 34.072 37.028 33.5493 37.5507C33.0267 38.0734 32.3991 38.3342 31.6667 38.3334ZM17.2 17L20.4 23.6667H29.7333L33.4 17H17.2ZM15.9333 14.3334H37.9333L31.3 26.3334H19.8L18.3333 29H34.3333V31.6667H13.8333L17.8 24.4667L13 14.3334H10.3333V11.6667H14.6667L15.9333 14.3334Z" fill="#D05F5F"/>
</svg>
