<svg width="50" height="50" viewBox="0 0 50 50" fill="none" xmlns="http://www.w3.org/2000/svg">
<rect width="50" height="50" rx="6" fill="#F9ECEC"/>
<path d="M25 37C23.5333 37 22.2778 36.4778 21.2333 35.4333C20.1889 34.3889 19.6667 33.1333 19.6667 31.6667C19.6667 30.2 20.1889 28.9444 21.2333 27.9C22.2778 26.8556 23.5333 26.3333 25 26.3333C26.4667 26.3333 27.7222 26.8556 28.7667 27.9C29.8111 28.9444 30.3333 30.2 30.3333 31.6667C30.3333 33.1333 29.8111 34.3889 28.7667 35.4333C27.7222 36.4778 26.4667 37 25 37ZM25 34.3333C25.7333 34.3333 26.3613 34.072 26.884 33.5493C27.4067 33.0267 27.6676 32.3991 27.6667 31.6667C27.6667 30.9333 27.4053 30.3053 26.8827 29.7827C26.36 29.26 25.7324 28.9991 25 29C24.2667 29 23.6387 29.2613 23.116 29.784C22.5933 30.3067 22.3324 30.9342 22.3333 31.6667C22.3333 32.4 22.5947 33.028 23.1173 33.5507C23.64 34.0733 24.2676 34.3342 25 34.3333ZM13.0667 20.4667L11.1 18.6333C12.9 16.8778 14.9889 15.5 17.3667 14.5C19.7444 13.5 22.2889 13 25 13C27.7111 13 30.2556 13.5 32.6333 14.5C35.0111 15.5 37.1 16.8778 38.9 18.6333L36.9333 20.4667C35.3556 18.9778 33.5556 17.8053 31.5333 16.9493C29.5111 16.0933 27.3333 15.6658 25 15.6667C22.6667 15.6667 20.4889 16.0947 18.4667 16.9507C16.4444 17.8067 14.6444 18.9787 13.0667 20.4667ZM32.0667 25.0333C31.1333 24.1889 30.0667 23.5276 28.8667 23.0493C27.6667 22.5711 26.3778 22.3324 25 22.3333C23.6222 22.3333 22.3387 22.572 21.1493 23.0493C19.96 23.5267 18.888 24.188 17.9333 25.0333L15.9667 23.2C17.1667 22.0889 18.5391 21.2222 20.084 20.6C21.6289 19.9778 23.2676 19.6667 25 19.6667C26.7333 19.6667 28.3667 19.9778 29.9 20.6C31.4333 21.2222 32.8 22.0889 34 23.2L32.0667 25.0333Z" fill="#D05F5F"/>
</svg>
