<svg width="50" height="50" viewBox="0 0 50 50" fill="none" xmlns="http://www.w3.org/2000/svg">
<rect width="50" height="50" rx="6" fill="#F9ECEC"/>
<path d="M19.6333 33.3333C19.4111 32.6889 19.2058 32.0333 19.0173 31.3666C18.8289 30.7 18.6787 30.0333 18.5667 29.3666L17 30.4333V34.4L19.6333 33.3333ZM24.5333 15.5C23.4667 16.6333 22.6111 18.128 21.9667 19.984C21.3222 21.84 21 23.7898 21 25.8333C21 27.1666 21.1222 28.4724 21.3667 29.7506C21.6111 31.0289 21.9333 32.112 22.3333 33H27.6667C28.0667 32.1111 28.3889 31.0275 28.6333 29.7493C28.8778 28.4711 29 27.1662 29 25.8346C29 23.7902 28.6778 21.84 28.0333 19.984C27.3889 18.128 26.5333 16.6338 25.4667 15.5013C25.4 15.4346 25.328 15.3844 25.2507 15.3506C25.1733 15.3169 25.0898 15.3004 25 15.3013C24.9111 15.3013 24.8276 15.3182 24.7493 15.352C24.6711 15.3858 24.5991 15.4342 24.5333 15.5ZM25 26.3333C24.2667 26.3333 23.6387 26.072 23.116 25.5493C22.5933 25.0266 22.3324 24.3991 22.3333 23.6666C22.3333 22.9333 22.5947 22.3053 23.1173 21.7826C23.64 21.26 24.2676 20.9991 25 21C25.7333 21 26.3613 21.2613 26.884 21.784C27.4067 22.3066 27.6676 22.9342 27.6667 23.6666C27.6667 24.4 27.4053 25.028 26.8827 25.5506C26.36 26.0733 25.7324 26.3342 25 26.3333ZM30.3667 33.3333L33 34.4V30.4333L31.4333 29.3666C31.3222 30.0333 31.172 30.7 30.9827 31.3666C30.7933 32.0333 30.588 32.6889 30.3667 33.3333ZM26.0333 12.4666C27.9 14.0666 29.3058 16.0333 30.2507 18.3666C31.1956 20.7 31.6676 23.3555 31.6667 26.3333L34.4667 28.2C34.8444 28.4444 35.1391 28.7666 35.3507 29.1666C35.5622 29.5666 35.6676 29.9889 35.6667 30.4333V36.3666C35.6667 36.8333 35.4724 37.2 35.084 37.4666C34.6956 37.7333 34.2787 37.7778 33.8333 37.6L29.0333 35.6666H20.9667L16.1667 37.6C15.7222 37.7778 15.3053 37.7333 14.916 37.4666C14.5267 37.2 14.3324 36.8333 14.3333 36.3666V30.4333C14.3333 29.9889 14.4391 29.5666 14.6507 29.1666C14.8622 28.7666 15.1564 28.4444 15.5333 28.2L18.3333 26.3333C18.3333 23.3555 18.8058 20.7 19.7507 18.3666C20.6956 16.0333 22.1004 14.0666 23.9653 12.4666C24.1209 12.3555 24.2876 12.2666 24.4653 12.2C24.6431 12.1333 24.8209 12.1 24.9987 12.1C25.1764 12.1 25.3542 12.1333 25.532 12.2C25.7098 12.2666 25.8778 12.3555 26.0333 12.4666Z" fill="#D05F5F"/>
</svg>
