<svg width="94" height="114" viewBox="0 0 94 114" fill="none" xmlns="http://www.w3.org/2000/svg">
<path d="M2 85.8085V4.37019C2 3.34871 2.80043 2.48609 3.81773 2.39384C50.6563 -1.85348 60.0661 29.2607 58.9093 47.1726C58.8419 48.2157 59.5479 49.1604 60.5648 49.4021C81.2598 54.3215 89.6445 74.206 91.6701 85.5864C91.8798 86.7643 90.9495 87.8085 89.7531 87.8085H4C2.89543 87.8085 2 86.913 2 85.8085Z" fill="#D9EBFF" stroke="#3478F6" stroke-width="4"/>
<path d="M45.2245 45.41C45.0163 20.9783 28.9563 16.2883 18.2992 17.1728C16.4097 17.3297 15.0788 18.9927 15.0788 20.8888V45.2166C15.0788 47.4257 16.8696 49.2166 19.0788 49.2166H41.3447C43.4701 49.2166 45.2426 47.5353 45.2245 45.41Z" fill="white" stroke="#2454FF" stroke-width="4"/>
<path d="M29.0949 80.2709C26.9053 90.2269 38.4652 104.357 44.5189 110.177C57.5021 99.2181 60.0502 86.2843 59.8463 80.8819C58.1976 70.2056 49.0377 66.6468 44.5189 66.5074C33.1844 67.0477 29.5135 75.9082 29.0949 80.2709Z" fill="#2454FF" stroke="#2454FF" stroke-width="5"/>
<circle cx="44.2291" cy="82.1353" r="8.97783" fill="#BFDAF7"/>
</svg>
